<svg width="634" height="646" viewBox="0 0 634 646" fill="none" xmlns="http://www.w3.org/2000/svg">
  <path d="M449.769 365.112C437.963 356.957 438.585 333.89 438.585 333.89C438.585 333.89 477.729 344.22 500.408 377.694C500.408 377.694 461.652 373.345 449.769 365.112Z" fill="#101010"/>
  <path d="M175.683 248.301C175.821 248.626 175.925 248.964 175.993 249.311C175.993 248.223 175.76 248.223 175.683 248.301Z" fill="url(#paint0_linear_123_746)"/>
  <path d="M549.105 91.9577C527.092 70.9498 502.29 53.0738 475.399 38.8335C448.422 24.6803 419.659 14.2305 389.888 7.76677C360.154 1.35432 329.707 -1.12633 299.328 0.388419V0.388419L292.804 0.932087L296.998 1.63109C300.804 2.40776 314.007 6.13577 327.444 13.7471C316.415 14.6015 305.308 15.8441 294.357 17.4751C288.61 18.3295 282.863 19.3391 277.115 20.3488L272.766 21.2031L268.494 22.1351C265.621 22.6788 262.825 23.3778 259.951 23.9991C248.534 26.6398 237.272 29.8242 226.166 33.3968C215.06 36.9695 204.031 41.0859 193.235 45.7459C171.613 54.91 151.063 66.422 131.956 80.0746C103.144 100.631 78.3466 126.298 58.7938 155.8C52.2421 165.559 46.2771 175.7 40.9304 186.168C30.2745 207.078 21.7653 229.014 15.5334 251.641C9.28605 274.147 4.94724 297.14 2.56301 320.376C1.398 332.026 0.543668 343.676 0.233001 355.326C0.0776669 361.177 0 367.002 0 372.801C0 378.548 0.233001 384.606 0.466001 390.431C2.17467 386.703 13.98 364.025 29.5911 352.064L29.2804 359.054V360.53C29.2172 361.253 29.1913 361.979 29.2027 362.704V369.073C29.2027 371.869 29.1251 374.743 29.2804 377.539L29.5911 386.082C29.7464 388.878 29.9794 391.674 30.2124 394.548C32.0173 417.165 36.4216 439.499 43.3381 461.108C44.8914 466.545 46.9885 471.826 48.9301 477.108C49.8621 479.826 50.9495 482.389 52.0368 485.03L55.3765 492.874C60.1142 503.126 65.0848 513.3 71.0652 523.009C73.8612 527.902 77.0455 532.562 80.1522 537.377C81.7055 539.707 83.4142 541.96 85.0452 544.29L87.5306 547.707L90.1712 551.047C97.0811 560.027 104.552 568.562 112.539 576.599L115.568 579.55L117.122 581.104L118.675 582.502L124.888 588.249L131.335 593.841L134.597 596.482L137.936 599.2C146.855 606.172 156.164 612.629 165.819 618.539C175.487 624.414 185.498 629.705 195.798 634.383C206.142 639.039 216.842 642.857 227.797 645.8C227.486 645.722 227.253 645.256 226.943 645.179C213.506 635.082 43.7264 501.806 136.461 260.65C157.741 215.293 172.653 192.536 180.42 182.362L179.333 186.09C176.581 196.414 174.787 206.969 173.974 217.623C173.818 220.263 173.663 222.904 173.663 225.622V229.583L173.896 233.544C174.299 238.305 175.052 243.03 176.148 247.68C186.748 225.904 200.199 205.636 216.147 187.41L216.458 187.1L216.768 186.789L222.671 180.653C219.904 170.662 217.7 160.524 216.069 150.285C219.564 158.907 223.448 167.372 227.642 175.527L235.253 167.683L235.564 167.372L235.874 167.062C275.594 130.057 325.468 105.769 379.092 97.3167C494.427 84.5016 562.852 126.442 590.812 149.353L604.87 162.479L605.646 163.178C590.209 136.92 571.178 112.948 549.105 91.9577V91.9577ZM217.778 641.917L211.875 639.509C208.38 638.033 204.808 636.402 201.39 634.771C206.749 637.257 212.186 639.664 217.778 641.917ZM356.258 58.7162C279.212 71.8419 232.069 116.112 232.069 116.112C253.971 84.0356 270.824 70.5216 274.552 67.7256C263.679 69.2789 252.65 71.3759 242.088 74.9486C236.806 76.5796 231.68 78.832 226.477 80.929C225.154 81.4331 223.858 82.0034 222.593 82.6376L218.865 84.424C216.302 85.6666 213.739 86.9093 211.332 88.3073L203.953 92.346L196.886 96.8507L193.313 99.1807L189.895 101.588L186.478 104.074L183.061 106.559C174.182 113.47 165.824 121.024 158.052 129.16C142.597 145.433 129.452 163.753 118.986 183.605C116.345 188.498 113.86 193.468 111.607 198.594C110.442 201.157 109.355 203.643 108.268 206.283L106.714 210.089C106.248 211.409 105.705 212.73 105.239 213.972C103.375 219.254 101.588 224.457 100.035 229.816C99.8019 230.671 99.5689 231.525 99.4136 232.302C128.15 103.53 238.748 49.2409 304.532 39.6879C418.702 23.1448 477.651 64.8519 477.651 64.8519C477.651 64.8519 424.527 47.1439 356.258 58.7162Z" fill="url(#paint1_linear_123_746)"/>
  <path d="M219.176 167.295L211.953 176.071L209.468 179.178L209.157 179.566L208.613 180.187C208.338 180.492 208.103 180.832 207.914 181.197L206.672 182.828L204.264 186.245C203.487 187.333 202.711 188.498 202.012 189.663C195.954 198.794 190.556 208.345 185.857 218.244C183.527 223.137 181.43 228.186 179.488 233.234C179.022 234.477 178.556 235.719 178.168 237.04L176.77 240.845C176.382 242.166 175.76 243.641 175.372 244.962L175.76 245.816C175.683 247.059 175.993 248.068 175.993 249.311C186.711 227.098 199.682 206.128 215.992 187.41L216.303 187.1L216.613 186.789L222.516 180.653C221.196 175.838 220.108 171.333 219.176 167.295Z" fill="#300000"/>
  <path d="M603.006 159.14C600.987 155.8 598.889 152.538 596.715 149.276H596.637L594.074 146.092C593.22 145.082 592.132 144.072 591.2 143.063L588.249 140.189L585.22 137.315C577.08 129.882 568.324 123.153 559.046 117.199C540.329 105.105 519.983 95.7426 498.622 89.3947C493.34 87.8414 487.904 86.3657 482.467 85.0454L478.428 84.1911L474.312 83.3367L466.079 81.7834L457.846 80.4631L449.536 79.4534L441.226 78.5991L432.915 77.9777C430.197 77.7447 427.401 77.7447 424.605 77.6671L420.411 77.5117H407.984L399.674 77.7447L391.364 78.2884H389.267L387.17 78.4437L382.898 78.9097L378.626 79.2981L376.452 79.4534L374.277 79.8417L365.656 81.3174C360.142 82.5601 354.627 83.7251 349.191 85.2007L345.074 86.2881L341.036 87.4531C338.317 88.3074 335.599 89.0064 332.958 90.0161L324.958 92.8121L317.114 95.9188C314.473 96.9284 311.91 98.0934 309.347 99.1808C306.784 100.268 304.221 101.511 301.736 102.831L294.202 106.637L286.746 110.675C284.339 111.996 281.931 113.471 279.523 114.947L275.951 117.199L272.456 119.529C267.718 122.558 263.213 125.821 258.709 129.16L252.185 134.442L250.554 135.684L248.923 137.082L245.738 139.801L242.632 142.519L239.525 145.393L236.496 148.266C235.486 149.198 234.477 150.13 233.545 151.14L227.72 157.12L226.865 157.975L225.856 159.062L224.613 160.615L222.05 163.644L221.895 163.877C223.681 167.838 225.545 171.644 227.487 175.45L235.098 167.605L235.409 167.295L235.719 166.984C275.439 129.979 325.313 105.692 378.937 97.2391C494.272 84.4241 562.697 126.364 590.657 149.276C595.705 153.858 600.598 158.518 605.491 163.101C605.491 163.178 604.637 161.703 603.006 159.14Z" fill="#300000"/>
  <path d="M136.305 260.65C157.741 214.904 172.809 192.148 180.42 182.051L205.739 128.461C138.557 182.673 110.675 270.281 99.1027 331.638C98.8697 332.57 98.6367 333.424 98.4814 334.356C98.326 335.288 97.9377 336.608 97.7047 337.773L97.0834 341.113C96.6174 343.443 96.1514 345.695 95.763 347.948C95.064 352.53 94.2097 357.112 93.666 361.772C91.8766 375.005 90.9427 388.34 90.87 401.693V401.693C90.8116 425.765 93.654 449.755 99.3357 473.147C100.501 477.651 101.666 482.234 102.986 486.661C103.297 487.826 103.685 488.913 103.996 490.078L105.083 493.418C105.86 495.592 106.559 497.845 107.413 500.019L109.743 506.621L112.306 513.145L115.102 519.591C116.034 521.689 117.044 523.786 117.976 525.96C118.908 528.135 119.995 530.154 121.005 532.251C122.014 534.348 123.102 536.368 124.189 538.465L125.82 541.494L127.529 544.523L129.237 547.629L131.024 550.581C135.725 558.552 140.832 566.277 146.324 573.725C157.114 588.608 169.369 602.372 182.905 614.811C189.627 620.964 196.679 626.746 204.031 632.131C205.817 633.529 207.681 634.771 209.545 636.092C211.409 637.412 213.273 638.655 215.215 639.82L220.418 643.004L227.641 645.8C227.641 645.8 39.8429 511.669 136.305 260.65Z" fill="#300000"/>
  <path d="M580.87 379.247L584.676 400.761L583.278 400.373L576.754 397.732L570.308 394.858L564.017 391.752L557.803 388.334C555.862 387.092 553.765 385.927 551.901 384.606L548.949 382.665L546.153 380.645L544.755 379.558L543.357 378.471L540.639 376.296C538.93 374.743 537.144 373.267 535.513 371.558C528.906 365.172 523.465 357.681 519.436 349.423C517.484 345.315 515.949 341.022 514.854 336.608C514.309 334.412 513.919 332.18 513.689 329.929C513.533 328.842 513.456 327.754 513.378 326.667V324.181C513.361 323.946 513.387 323.709 513.456 323.483L513.611 321.075L511.203 320.453L505.068 318.822C503.048 318.201 501.029 317.813 499.01 317.114L492.952 315.327L490 314.318L486.971 313.308L481.069 311.211L475.243 308.803C473.302 308.027 471.282 307.25 469.418 306.396L463.671 303.833C456.059 300.273 448.644 296.307 441.458 291.95L438.74 290.319L436.099 288.61L430.818 285.193L425.692 281.542L423.129 279.678L420.644 277.814L418.081 275.873L415.673 273.931C414.042 272.533 412.333 271.29 410.78 269.892L405.965 265.776L401.305 261.504C398.276 258.553 395.247 255.679 392.373 252.573C390.897 251.097 389.499 249.544 388.024 247.99L385.927 245.66L383.83 243.253C378.28 236.85 373.069 230.162 368.219 223.215C363.316 216.282 358.904 209.016 355.015 201.468C353.229 225.001 359.52 239.758 359.52 239.758C346.107 235.022 333.008 229.445 320.298 223.059C317.114 221.506 314.007 219.797 310.9 218.244L306.24 215.681L303.91 214.361L301.58 213.04C295.445 209.545 289.464 205.817 283.484 202.012C277.504 198.206 271.679 194.245 265.931 190.129C260.184 186.012 254.437 181.818 248.845 177.469C243.253 173.119 237.66 168.77 232.146 164.188C226.632 159.605 221.273 155.023 215.914 150.285C249.699 234.088 322.939 296.92 322.939 296.92C258.32 306.551 210.632 281.542 210.632 281.542C236.34 313.075 262.592 335.676 285.037 351.443L281.309 353.229C281.309 353.229 196.652 391.208 172.653 495.748C185.563 519.096 201.929 540.358 221.195 558.813C283.251 618.772 360.452 629.179 421.498 625.607C414.197 621.568 309.658 564.56 369.306 438.119C372.154 440.494 375.254 442.551 378.548 444.254C367.597 463.361 373.655 474.001 373.655 474.001C373.655 474.001 387.868 446.351 437.42 452.798C486.971 459.244 543.59 508.097 543.59 508.097C543.59 522.465 538.076 530.853 538.076 530.853C614.189 513.844 623.587 448.526 623.587 448.526L633.917 460.021C626.306 407.984 580.87 379.247 580.87 379.247ZM449.769 365.112C437.963 356.957 438.585 333.89 438.585 333.89C438.585 333.89 477.729 344.22 500.408 377.694C500.408 377.694 461.652 373.345 449.769 365.112Z" fill="url(#paint2_linear_123_746)"/>
  <path d="M285.038 351.443C296.532 355.559 319.522 356.724 319.522 356.724C260.107 335.21 210.71 281.542 210.633 281.542C236.341 313.075 262.592 335.676 285.038 351.443Z" fill="url(#paint3_linear_123_746)"/>
  <path d="M545.299 462.118L529.843 479.049L534.425 455.205C508.562 439.128 476.02 422.818 439.983 413.887C352.219 391.907 331.327 317.114 331.327 317.114C331.327 317.114 322.939 345.074 326.589 376.607C326.589 376.607 261.815 481.535 273.775 597.025L277.814 599.122L278.979 599.744L281.93 601.142L283.328 601.841L286.124 603.161L287.523 603.705L290.552 605.103L291.639 605.569L299.949 608.908L301.037 609.297L304.143 610.462L305.464 610.928L308.337 611.937L309.658 612.326L312.842 613.413L313.774 613.724L322.24 616.209L323.249 616.442L326.434 617.296L327.676 617.607L330.705 618.384L331.87 618.617L335.21 619.393L336.064 619.549L344.53 621.335H345.229L348.724 621.956L349.734 622.112L352.996 622.655L353.928 622.811L357.5 623.277H358.044L366.587 624.364H366.898L370.704 624.752H371.403L374.898 625.063H375.597L379.48 625.374H379.635C383.829 625.607 388.023 625.84 392.14 625.917H396.567C402.081 625.995 407.518 625.917 412.799 625.762L417.071 625.529C418.624 625.451 420.1 625.451 421.498 625.296C414.197 621.257 309.658 564.25 369.306 437.808L370.16 438.507L370.393 438.662L371.092 439.128C371.092 439.206 371.17 439.284 371.247 439.361L372.102 439.905C372.102 439.983 372.179 439.983 372.257 440.06L372.878 440.449L373.111 440.604L373.655 441.07H373.81L374.509 441.536H374.665L375.131 441.847L375.364 442.002L375.907 442.313L376.451 442.623C376.451 442.701 376.529 442.701 376.606 442.779L376.917 442.934H377.072L377.461 443.167C377.481 443.167 377.501 443.175 377.516 443.19C377.53 443.204 377.538 443.224 377.538 443.245H378.548C377.849 444.487 377.305 445.652 376.684 446.74C374.233 451.489 372.679 456.649 372.102 461.962V462.351C372.024 463.05 372.024 463.671 371.946 464.292C371.946 469.962 373.655 472.991 373.655 472.991C373.655 472.991 387.868 445.342 437.42 451.788C486.971 458.234 543.59 507.087 543.59 507.087C543.589 509.242 543.459 511.394 543.202 513.533L542.969 515.475C542.969 515.63 542.891 515.708 542.891 515.863C542.833 516.389 542.729 516.909 542.58 517.417C542.58 517.65 542.503 517.883 542.503 518.116C542.503 518.349 542.27 519.048 542.115 519.514C541.959 519.98 542.037 519.824 542.037 519.98C541.809 520.954 541.524 521.913 541.182 522.853L540.717 524.251L540.484 524.873L539.629 526.892V527.047C539.515 527.339 539.385 527.624 539.241 527.902V527.902C539.122 528.101 539.018 528.308 538.93 528.523C538.853 528.678 538.775 528.756 538.775 528.834L538.154 529.843L541.338 529.067L542.115 528.911L544.833 528.212L545.144 528.057L548.095 527.203L548.872 527.047L551.279 526.271L551.823 526.038L554.541 525.106L555.24 524.873L557.415 524.018L558.036 523.785L560.599 522.776L561.221 522.543L563.24 521.611L563.939 521.3L566.347 520.213L566.813 519.98L568.754 518.97L569.453 518.582L571.706 517.417L572.016 517.261L573.958 516.174L574.657 515.708L576.443 514.621L576.832 514.388L578.773 513.145L579.472 512.679L581.026 511.669L581.492 511.281L583.278 511.048L583.977 510.504L585.22 509.572L585.841 509.106L587.472 507.786L588.171 507.242L589.258 506.31L589.957 505.689L591.433 504.369L592.054 503.825L593.064 502.893C593.29 502.706 593.498 502.498 593.685 502.272L595.083 500.951C595.083 500.951 576.133 482.622 545.299 462.118Z" fill="url(#paint4_linear_123_746)"/>
  <path d="M322.939 296.92C368.296 330.861 438.585 333.89 438.585 333.89C283.407 278.436 215.914 150.285 215.914 150.285C249.699 234.088 322.939 296.92 322.939 296.92Z" fill="url(#paint5_linear_123_746)"/>
  <path opacity="0.75" d="M545.299 462.118L529.843 479.049L534.425 455.205C508.562 439.128 476.02 422.818 439.983 413.887C352.219 391.907 331.327 317.114 331.327 317.114C331.327 317.114 322.939 345.074 326.589 376.607C326.589 376.607 261.815 481.535 273.775 597.025L277.814 599.122L278.979 599.744L281.93 601.142L283.328 601.841L286.124 603.161L287.523 603.705L290.552 605.103L291.639 605.569L299.949 608.908L301.037 609.297L304.143 610.462L305.464 610.928L308.337 611.937L309.658 612.326L312.842 613.413L313.774 613.724L322.24 616.209L323.249 616.442L326.434 617.296L327.676 617.607L330.705 618.384L331.87 618.617L335.21 619.393L336.064 619.549L344.53 621.335H345.229L348.724 621.956L349.734 622.112L352.996 622.655L353.928 622.811L357.5 623.277H358.044L366.587 624.364H366.898L370.704 624.752H371.403L374.898 625.063H375.597L379.48 625.374H379.635C383.829 625.607 388.023 625.84 392.14 625.917H396.567C402.081 625.995 407.518 625.917 412.799 625.762L417.071 625.529C418.624 625.451 420.1 625.451 421.498 625.296C414.197 621.257 309.658 564.25 369.306 437.808L370.16 438.507L370.393 438.662L371.092 439.128C371.092 439.206 371.17 439.284 371.247 439.361L372.102 439.905C372.102 439.983 372.179 439.983 372.257 440.06L372.878 440.449L373.111 440.604L373.655 441.07H373.81L374.509 441.536H374.665L375.131 441.847L375.364 442.002L375.907 442.313L376.451 442.623C376.451 442.701 376.529 442.701 376.606 442.779L376.917 442.934H377.072L377.461 443.167C377.481 443.167 377.501 443.175 377.516 443.19C377.53 443.204 377.538 443.224 377.538 443.245H378.548C377.849 444.487 377.305 445.652 376.684 446.74C374.233 451.489 372.679 456.649 372.102 461.962V462.351C372.024 463.05 372.024 463.671 371.946 464.292C371.946 469.962 373.655 472.991 373.655 472.991C373.655 472.991 387.868 445.342 437.42 451.788C486.971 458.234 543.59 507.087 543.59 507.087C543.589 509.242 543.459 511.394 543.202 513.533L542.969 515.475C542.969 515.63 542.891 515.708 542.891 515.863C542.833 516.389 542.729 516.909 542.58 517.417C542.58 517.65 542.503 517.883 542.503 518.116C542.503 518.349 542.27 519.048 542.115 519.514C541.959 519.98 542.037 519.824 542.037 519.98C541.809 520.954 541.524 521.913 541.182 522.853L540.717 524.251L540.484 524.873L539.629 526.892V527.047C539.515 527.339 539.385 527.624 539.241 527.902V527.902C539.122 528.101 539.018 528.308 538.93 528.523C538.853 528.678 538.775 528.756 538.775 528.834L538.154 529.843L541.338 529.067L542.115 528.911L544.833 528.212L545.144 528.057L548.095 527.203L548.872 527.047L551.279 526.271L551.823 526.038L554.541 525.106L555.24 524.873L557.415 524.018L558.036 523.785L560.599 522.776L561.221 522.543L563.24 521.611L563.939 521.3L566.347 520.213L566.813 519.98L568.754 518.97L569.453 518.582L571.706 517.417L572.016 517.261L573.958 516.174L574.657 515.708L576.443 514.621L576.832 514.388L578.773 513.145L579.472 512.679L581.026 511.669L581.492 511.281L583.278 511.048L583.977 510.504L585.22 509.572L585.841 509.106L587.472 507.786L588.171 507.242L589.258 506.31L589.957 505.689L591.433 504.369L592.054 503.825L593.064 502.893C593.29 502.706 593.498 502.498 593.685 502.272L595.083 500.951C595.083 500.951 576.133 482.622 545.299 462.118Z" fill="url(#paint6_linear_123_746)"/>
  <path d="M357.423 547.396C357.423 547.396 369.306 595.239 421.498 625.607C421.498 625.607 348.413 635.16 278.979 599.666L277.271 516.718L357.423 547.396Z" fill="url(#paint7_linear_123_746)"/>
  <path d="M291.173 451.788C291.173 451.788 277.97 472.681 277.271 516.718C277.271 516.718 312.143 557.26 370.393 555.474C370.393 555.474 354.316 527.281 353.073 490.466L291.173 451.788Z" fill="url(#paint8_linear_123_746)"/>
  <path d="M326.589 376.607C326.589 376.607 330.239 411.013 370.393 438.973C370.393 438.973 354.471 458.778 359.52 493.185C359.52 493.185 313.308 486.195 291.173 451.788C291.173 451.788 292.726 430.663 326.589 376.607Z" fill="url(#paint9_linear_123_746)"/>
  <path opacity="0.75" d="M322.939 296.92C368.296 330.861 438.585 333.89 438.585 333.89C283.407 278.436 215.914 150.285 215.914 150.285C249.699 234.088 322.939 296.92 322.939 296.92Z" fill="url(#paint10_linear_123_746)"/>
  <path d="M0.46582 390.431C0.46582 390.431 12.5042 365.19 29.5909 352.064C29.5909 352.064 29.7462 278.669 79.0647 200.381C79.0647 200.381 12.8925 275.95 0.46582 390.431Z" fill="#300000"/>
  <path d="M376.063 17.7858C376.063 17.7858 344.918 3.96114 292.804 0.932129C312.298 4.42714 329.229 14.7568 329.229 14.7568C344.89 14.7445 360.534 15.7564 376.063 17.7858V17.7858Z" fill="#300000"/>
  <path d="M477.418 65.1627C473.129 62.4407 468.667 60.0019 464.06 57.862C459.4 55.6873 454.74 53.7456 449.924 51.9593C445.109 50.173 440.294 48.542 435.401 47.144C432.993 46.3673 430.508 45.8236 428.022 45.1246L420.566 43.3383C400.622 38.9148 380.26 36.6494 359.831 36.5813H352.219L344.53 36.8143L336.919 37.2026C334.356 37.2803 331.793 37.5909 329.23 37.7463C319.056 38.6006 308.881 39.7656 298.862 41.4743C288.834 43.2888 278.946 45.8062 269.271 49.008C259.575 52.1487 250.082 55.8838 240.845 60.192C203.798 77.2787 170.557 102.831 145.47 135.063C142.286 139.024 139.412 143.218 136.461 147.412C134.985 149.509 133.665 151.684 132.267 153.781L130.247 157.043L128.306 160.305L124.5 166.984L120.927 173.741C120.384 174.906 119.762 175.993 119.219 177.158L117.588 180.653C116.578 182.983 115.491 185.236 114.403 187.566C106.404 206.361 100.113 226.088 96.54 246.204C98.385 225.541 102.901 205.204 109.976 185.702C117.432 166.285 127.218 147.49 139.8 130.636C142.829 126.364 146.247 122.325 149.509 118.209C151.218 116.19 153.004 114.248 154.713 112.306C156.421 110.365 156.421 110.287 157.353 109.355L160.149 106.559C163.722 102.676 167.605 99.1031 171.411 95.4527C175.217 91.8024 179.255 88.4627 183.449 85.2007L186.478 82.7154C187.488 81.861 188.575 81.162 189.663 80.3077L192.847 77.9777L196.031 75.7254L202.555 71.2984L209.235 67.0267C218.224 61.5291 227.506 56.5251 237.039 52.037C246.623 47.6033 256.481 43.7898 266.553 40.6199L274.164 38.2899L281.776 36.2706L289.542 34.4843L297.387 33.0086L301.348 32.4649L303.289 32.1543L305.231 31.9213L312.998 31.0669L320.842 30.3679L324.725 30.0572L328.609 29.8242C331.249 29.6689 333.812 29.4359 336.453 29.3582L344.297 29.1252H356.025L359.908 29.2806C362.549 29.2806 365.112 29.5136 367.753 29.6689L371.636 29.9019L375.519 30.2126L383.286 30.9893C385.927 31.2999 388.49 31.6106 391.053 32.0766C401.374 33.5709 411.593 35.6978 421.654 38.4453C424.217 39.0666 426.702 39.9209 429.187 40.6199L436.566 43.1053C441.459 44.814 446.274 46.7556 451.012 48.8526C460.487 53.1243 469.729 57.9397 477.962 64.3083L477.418 65.1627Z" fill="#300000"/>
  <path d="M284.027 575.667C283.173 570.929 282.862 566.036 282.319 561.221C282.163 559.978 282.086 558.813 282.008 557.571L281.853 553.92C281.697 551.512 281.464 549.105 281.464 546.619L281.309 539.319C281.309 536.833 281.387 534.426 281.387 531.94V528.29L281.62 524.64C281.697 522.232 281.853 519.747 282.008 517.261C282.707 507.475 283.95 497.767 285.581 487.981C289.015 468.461 294.161 449.281 300.959 430.663C304.376 421.265 308.182 412.1 312.453 403.013C314.55 398.509 316.803 394.004 319.133 389.577C321.463 385.15 323.87 380.801 326.511 376.607C323.56 380.568 320.764 384.762 318.045 388.956C315.327 393.15 312.686 397.499 310.201 401.848C305.23 410.625 300.57 419.556 296.376 428.721C287.866 447.132 281.004 466.261 275.872 485.884C273.309 495.748 271.212 505.767 269.581 515.863C269.193 518.349 268.882 520.912 268.494 523.475L268.028 527.28L267.64 531.086C267.407 533.649 267.096 536.212 266.863 538.775L266.397 546.464C266.242 549.027 266.164 551.59 266.086 554.153V558.036C266.086 559.357 266.009 560.6 266.086 561.92C266.164 567.046 266.164 572.25 266.552 577.376C266.941 582.502 267.407 588.404 268.028 593.919C275.085 597.938 282.343 601.594 289.775 604.87C287.345 595.244 285.426 585.496 284.027 575.667V575.667Z" fill="#300000"/>
  <g opacity="0.85">
    <path d="M79.0652 200.381C76.1139 205.196 73.7062 210.4 71.2208 215.37C68.7355 220.341 66.2502 225.545 63.9978 230.671C62.8328 233.234 61.8232 235.874 60.7358 238.437C59.6485 241 58.6388 243.641 57.6291 246.282L54.6778 254.204L51.9595 262.126C48.4033 272.753 45.4217 283.565 43.0278 294.513C40.6201 305.386 38.5231 316.415 37.2028 327.444C36.9698 328.842 36.8921 330.24 36.7368 331.638L36.2708 335.754C36.1931 337.152 36.0378 338.55 35.8824 339.948L35.6494 344.064L35.3388 348.258C35.2611 349.656 35.1058 351.054 35.1058 352.375L34.7951 360.763V369.073C34.8728 371.869 34.7951 374.665 35.0281 377.383L35.4164 385.694C35.5718 388.49 35.8824 391.286 36.1154 394.004C38.0545 416.127 42.4837 437.96 49.3188 459.089C50.8721 464.448 52.8915 469.652 54.6778 474.855C55.6098 477.496 56.6971 480.059 57.7845 482.622L60.9688 490.311C65.4723 500.444 70.5282 510.323 76.1139 519.902C78.7545 524.795 81.8612 529.377 84.8125 534.037C86.3659 536.367 87.9969 538.62 89.5502 540.872L91.9579 544.289L94.4432 547.629L97.0062 550.891L98.2489 552.6L99.5692 554.231C101.356 556.328 103.142 558.425 104.851 560.6L106.171 562.231L107.569 563.784L110.365 566.891L113.161 569.997L116.035 573.026L118.908 575.978L120.384 577.531C120.85 577.997 121.394 578.463 121.86 579.007L127.84 584.754L134.131 590.346L137.238 593.064L140.5 595.783C149.085 602.91 158.084 609.523 167.45 615.588C176.827 621.76 186.552 627.387 196.575 632.441C201.624 634.927 206.75 637.334 211.876 639.509C217.002 641.684 222.283 644.091 227.642 645.8C216.687 642.857 205.987 639.039 195.643 634.383C185.343 629.704 175.332 624.414 165.664 618.539C156.009 612.629 146.7 606.172 137.781 599.2L134.442 596.482L131.18 593.841L124.733 588.249L118.52 582.502L116.967 581.104L115.413 579.55L112.384 576.599C104.397 568.562 96.9261 560.027 90.0162 551.047L87.3756 547.707L84.8902 544.289C83.2592 541.959 81.5505 539.707 79.9972 537.377C76.8905 532.562 73.7062 527.902 70.9102 523.009C64.9298 513.3 59.9591 503.126 55.2215 492.874L51.8818 485.03C50.7945 482.389 49.7071 479.826 48.7751 477.108C46.8334 471.826 44.7364 466.545 43.1831 461.108C36.2666 439.499 31.8623 417.165 30.0574 394.548C29.8244 391.674 29.5914 388.878 29.4361 386.082L29.1254 377.539C28.9701 374.743 29.0477 371.869 29.0477 369.073V362.704C29.0363 361.979 29.0622 361.253 29.1254 360.53L29.5137 352.064C29.5399 350.661 29.6436 349.261 29.8244 347.87L30.1351 343.598L30.5234 339.404L30.9894 335.133L31.5331 330.939C31.6884 329.541 31.8437 328.143 32.0767 326.745C35.3721 304.302 40.9677 282.258 48.7751 260.961C52.6548 250.329 57.0878 239.907 62.0562 229.739C64.4638 224.613 67.1045 219.642 69.9005 214.671C72.6965 209.701 75.8032 205.041 79.0652 200.381Z" fill="#AB516D"/>
  </g>
  <path opacity="0.85" d="M175.993 249.311C174.695 244.148 173.94 238.864 173.741 233.544L173.508 229.583V225.622C173.508 222.904 173.663 220.263 173.818 217.623C174.632 206.969 176.426 196.414 179.177 186.09L181.43 178.401L181.974 176.537L182.673 174.595L183.993 170.867L185.391 167.139L186.012 165.275L186.789 163.411L190.051 156.111C190.595 154.868 191.061 153.703 191.682 152.46L193.546 148.965C194.711 146.558 195.954 144.228 197.274 141.898C197.889 140.725 198.563 139.585 199.293 138.48L201.39 135.141L203.487 131.801L205.74 128.461L204.264 132.189L202.788 135.84C201.856 138.325 200.691 140.655 199.837 143.14C198.983 145.626 197.973 148.033 196.963 150.519L195.565 154.169C195.099 155.334 194.711 156.654 194.245 157.819C193.391 160.305 192.536 162.79 191.604 165.198C191.362 165.807 191.155 166.429 190.983 167.062L190.362 168.926L189.197 172.654C187.488 177.547 186.168 182.595 184.77 187.566C182.078 197.618 179.926 207.807 178.323 218.089C178.013 220.652 177.546 223.215 177.313 225.855L176.847 229.739L176.537 233.622C176.044 238.836 175.863 244.075 175.993 249.311V249.311Z" fill="#AB516D"/>
  <path opacity="0.85" d="M352.685 14.8345C348.802 14.5238 344.919 14.2131 340.958 14.0578C336.997 13.9025 333.113 13.6695 329.23 13.5918H329.075C317.502 14.4461 305.852 15.7665 294.357 17.4751C288.61 18.3295 282.863 19.3391 277.115 20.3488L272.766 21.2031L268.494 22.1352C265.621 22.6788 262.825 23.3778 259.951 23.9992C248.534 26.6398 237.272 29.8242 226.166 33.3968C215.06 36.9695 204.031 41.0859 193.235 45.7459C171.613 54.91 151.063 66.422 131.956 80.0746C103.144 100.631 78.3466 126.298 58.7938 155.8C52.2421 165.559 46.2771 175.7 40.9304 186.168C30.2745 207.078 21.7653 229.014 15.5334 251.641C9.28605 274.147 4.94724 297.14 2.56301 320.376C1.398 332.026 0.543668 343.676 0.233001 355.326C0.0776669 361.177 0 367.002 0 372.801C0 378.548 0.233001 384.606 0.466001 390.431C0.543668 384.606 0.932002 378.548 1.24267 372.801C1.55334 367.054 1.78634 361.229 2.25234 355.404C3.10667 343.831 4.27168 332.259 5.90268 320.842C9.04869 297.917 13.9826 275.272 20.6594 253.116C21.5137 250.32 22.2904 247.602 23.2224 244.806L26.0184 236.651C28.0377 231.214 29.9794 225.855 32.2317 220.496C36.4919 209.79 41.314 199.317 46.6778 189.119C57.5511 168.848 70.2885 149.586 85.3559 132.189C100.376 114.772 117.369 99.1595 135.995 85.6667C145.33 78.9433 154.999 72.6961 164.964 66.9489C174.906 61.2016 185.235 56.0756 195.721 51.3379C216.83 41.9672 238.676 34.3559 261.038 28.5815C263.912 27.8825 266.63 27.1058 269.504 26.4845L273.698 25.3972L277.892 24.4652C283.562 23.2225 289.231 22.1352 294.979 21.1255C306.318 19.0285 317.813 17.2421 329.308 15.9218C333.191 15.8441 337.074 15.7665 340.958 15.8441C344.841 15.9218 348.724 15.9995 352.608 16.1548C360.452 16.4655 368.219 17.0091 376.063 17.7858C368.296 16.5431 360.53 15.5335 352.685 14.8345Z" fill="#AB516D"/>
  <path opacity="0.85" d="M605.49 163.178C603.316 160.071 600.986 157.042 598.811 153.936L595.549 149.276L592.209 144.693C587.627 138.635 582.967 132.733 577.996 127.063L574.346 122.714L570.618 118.52L566.735 114.326C565.492 112.928 564.172 111.607 562.851 110.287C557.57 104.85 552.289 99.569 546.697 94.5207C541.105 89.4723 535.435 84.5793 529.61 79.8416C523.785 75.1039 517.805 70.5993 511.591 66.3276C505.378 62.0559 499.242 57.7842 492.796 53.9009C486.35 50.0176 479.903 46.2895 473.302 42.7945C466.7 39.2995 459.865 36.0375 453.03 32.9308C446.196 29.8242 439.206 27.1058 432.216 24.4651C425.226 21.8245 418.08 19.4168 410.935 17.2421L405.498 15.6111L400.062 14.1355C398.275 13.5918 396.411 13.2035 394.625 12.7375C392.839 12.2714 390.975 11.7278 389.111 11.3394C381.81 9.55311 374.432 8.15511 367.053 6.83477C359.675 5.51443 352.141 4.50476 344.685 3.65043C337.229 2.79609 329.618 2.17476 322.084 1.78642L316.414 1.47576H299.405L292.804 0.932087L299.328 0.388419C329.707 -1.12633 360.154 1.35432 389.887 7.76677C419.658 14.2305 448.421 24.6803 475.398 38.8335C502.289 53.0738 527.091 70.9498 549.104 91.9577C571.123 112.958 590.101 136.93 605.49 163.178V163.178Z" fill="#AB516D"/>
  <path opacity="0.85" d="M242.088 74.9486C236.806 76.5796 231.68 78.8319 226.477 80.929C225.154 81.4331 223.858 82.0034 222.593 82.6376L218.865 84.424C216.302 85.6666 213.739 86.9093 211.332 88.3073L203.953 92.346L196.886 96.8507L193.313 99.1807L189.896 101.588L186.478 104.074L183.061 106.559C174.183 113.47 165.824 121.024 158.052 129.16C142.598 145.433 129.452 163.753 118.986 183.605C116.345 188.498 113.86 193.468 111.607 198.594C110.442 201.157 109.355 203.643 108.268 206.283L106.714 210.089C106.248 211.409 105.705 212.73 105.239 213.972C103.375 219.254 101.588 224.457 100.035 229.816C99.6467 231.137 99.336 232.535 98.9477 233.855C98.5594 235.175 98.2487 236.496 97.938 237.894C97.3167 240.612 97.006 243.408 96.54 246.204C98.0934 240.923 100.423 235.797 102.365 230.748C104.307 225.7 106.481 220.574 108.734 215.603C113.239 205.597 118.295 195.848 123.879 186.401C129.412 176.967 135.453 167.841 141.975 159.062L144.46 155.8L147.024 152.615L149.587 149.431C150.441 148.344 151.295 147.256 152.227 146.247L157.586 140.033L163.178 134.053L164.576 132.577L166.052 131.102L168.926 128.228L171.877 125.354C172.809 124.345 173.896 123.49 174.906 122.558L177.935 119.762C178.945 118.908 179.877 117.898 180.964 117.044L187.255 111.84L190.517 109.277L193.779 106.792L197.041 104.307L200.458 101.977L207.215 97.3943L214.205 93.1227C216.535 91.647 218.943 90.4043 221.351 89.084L225.001 87.1423C226.166 86.521 227.331 85.822 228.574 85.2783C233.544 82.9483 238.437 80.463 243.563 78.5213C253.639 74.231 263.992 70.6243 274.553 67.7256C263.679 69.2789 252.65 71.3759 242.088 74.9486Z" fill="#AB516D"/>
  <g opacity="0.85">
    <path d="M359.52 239.758C345.346 237.271 331.507 233.153 318.279 227.486C314.939 226.166 311.677 224.613 308.415 223.059L303.522 220.652L301.115 219.487L298.785 218.166L294.047 215.603L289.309 212.885C287.756 212.031 286.28 211.021 284.727 210.089L282.397 208.691L280.145 207.215L271.135 201.235L262.437 194.866C256.689 190.517 251.097 186.012 245.738 181.274C240.379 176.537 235.098 171.566 230.127 166.44C225.102 161.315 220.358 155.922 215.914 150.285C221.273 155.023 226.632 159.683 232.146 164.188C237.661 168.692 243.175 173.119 248.845 177.469C254.514 181.818 260.107 186.012 265.932 190.129C271.757 194.245 277.504 198.206 283.484 202.012C289.465 205.817 295.445 209.545 301.581 213.04L303.911 214.361L306.241 215.681L310.901 218.244C314.007 219.797 317.114 221.506 320.298 223.059C333.008 229.445 346.108 235.022 359.52 239.758V239.758Z" fill="#AB516D"/>
    <path d="M583.279 400.373L576.444 398.586L569.764 396.179L563.163 393.538C560.988 392.528 558.813 391.596 556.639 390.509C554.464 389.422 552.367 388.334 550.348 387.092L547.241 385.305L544.212 383.286L542.736 382.354L541.261 381.267L538.387 379.17C536.523 377.616 534.581 376.141 532.795 374.51C531.009 372.879 529.3 371.17 527.591 369.461L525.184 366.743C524.329 365.889 523.63 364.879 522.854 363.947C519.796 360.125 517.117 356.015 514.854 351.675C512.581 347.307 510.809 342.695 509.573 337.928C508.925 335.555 508.432 333.143 508.097 330.705C507.942 329.463 507.786 328.22 507.709 326.977C507.631 325.735 507.631 325.657 507.631 325.036V323.016L509.883 326.045L503.592 324.492L500.486 323.715L498.932 323.327L497.379 322.861L491.166 321.075L488.059 320.065L485.03 319.055L478.894 316.958L472.914 314.551C468.875 313.075 464.992 311.133 461.031 309.425C445.418 302.043 430.717 292.868 417.227 282.086C410.454 276.774 404.045 271.014 398.043 264.844C395.014 261.815 392.063 258.708 389.267 255.446C387.791 253.893 386.471 252.184 385.073 250.553C383.675 248.922 383.675 248.922 383.053 248.068L381.034 245.505C375.755 238.757 370.879 231.703 366.433 224.379C361.981 217.082 358.161 209.416 355.016 201.468C358.905 209.015 363.317 216.282 368.219 223.214C373.07 230.161 378.281 236.85 383.83 243.253L385.927 245.66L388.024 247.99C389.5 249.544 390.898 251.097 392.373 252.573C395.247 255.679 398.276 258.553 401.305 261.504L405.965 265.776L410.78 269.892C412.334 271.29 414.042 272.533 415.673 273.931L418.081 275.873L420.644 277.814L423.129 279.678L425.692 281.542L430.818 285.193L436.1 288.61L438.741 290.319L441.459 291.95C448.644 296.307 456.059 300.273 463.672 303.833L469.419 306.396C471.283 307.25 473.302 308.027 475.244 308.803L481.069 311.211L486.972 313.308L490.001 314.318L492.952 315.327L499.01 317.114C501.029 317.813 503.049 318.201 505.068 318.822L511.204 320.453L513.611 321.075L513.456 323.482C513.388 323.709 513.361 323.946 513.378 324.181V326.667C513.456 327.754 513.534 328.841 513.689 329.929C513.92 332.18 514.309 334.412 514.854 336.608C515.95 341.022 517.485 345.315 519.436 349.423C523.466 357.681 528.907 365.172 535.513 371.558C537.144 373.267 538.931 374.743 540.639 376.296L543.358 378.471L544.756 379.558L546.154 380.645L548.95 382.665L551.901 384.606C553.765 385.927 555.862 387.092 557.804 388.334L564.017 391.752L570.308 394.858L576.755 397.732L583.279 400.373V400.373Z" fill="#AB516D"/>
  </g>
  <path opacity="0.15" d="M405.421 614.733C374.432 614.423 340.647 609.763 307.561 597.025C304.103 584.645 301.712 571.99 300.415 559.202C309.425 564.949 333.191 577.143 369.927 575.201C366.17 568.906 362.949 562.307 360.296 555.474C338.355 554.633 317.115 547.517 299.095 534.97C298.905 519.611 299.944 504.262 302.202 489.068C308.648 494.583 324.725 505.378 355.17 510.582C354.088 504.392 353.388 498.141 353.073 491.864C342.899 489.379 322.473 482.855 305.774 468.409C313.075 432.527 323.638 408.217 323.638 408.217C331.764 426.852 345.646 442.394 363.248 452.565C366.587 443.711 370.393 438.896 370.393 438.896C330.239 410.936 326.589 376.451 326.589 376.451C323.948 380.723 321.541 385.072 319.211 389.499C316.881 393.926 314.628 398.431 312.531 402.936C308.26 412.023 304.454 421.188 301.037 430.585C294.239 449.23 289.093 468.436 285.659 487.981C284.028 497.767 282.785 507.553 282.086 517.339C281.931 519.747 281.775 522.232 281.698 524.717L281.465 528.368V532.018C281.465 534.504 281.387 536.911 281.387 539.397L281.542 546.697C281.542 549.105 281.775 551.59 281.931 553.998L282.086 557.648C282.164 558.891 282.241 560.056 282.397 561.299C282.94 566.114 283.251 571.007 284.105 575.745C284.96 580.482 285.27 583.511 285.969 587.395C265.345 576.9 246.415 563.365 229.816 547.241C214.068 532.095 200.219 515.091 188.575 496.602C207.06 405.188 281.387 353.074 281.387 353.074C281.387 353.074 201.778 388.8 175.061 486.428C174.999 486.606 174.947 486.787 174.906 486.971C174.517 488.292 174.207 489.612 173.818 491.01C173.43 492.408 173.042 494.117 172.731 495.748C172.42 497.379 173.818 497.767 174.44 498.777C187.058 520.977 202.833 541.226 221.273 558.891C283.329 618.927 360.529 629.335 421.576 625.762C415.937 622.472 410.539 618.787 405.421 614.733V614.733Z" fill="black"/>
  <path d="M421.576 625.684C410.379 626.823 399.116 627.187 387.869 626.772C385.073 626.616 382.277 626.539 379.481 626.306L371.093 625.684L362.705 624.752L360.608 624.519L358.511 624.209L354.317 623.587L350.2 622.966L346.006 622.189L337.774 620.558L329.541 618.617C328.22 618.228 326.822 617.995 325.502 617.529L321.463 616.364C310.59 613.413 300.105 609.297 289.775 604.947V604.792L297.697 607.666L301.658 609.141L305.697 610.384L313.697 613.025L314.629 613.335L315.716 613.568L317.735 614.112L321.774 615.199C327.133 616.753 332.647 617.918 338.084 619.16L346.317 620.714L350.433 621.49L354.55 622.034L358.744 622.733L360.763 623.044L362.86 623.277L371.17 624.286L379.558 624.985L383.752 625.218L387.946 625.529L396.334 625.917H404.722C410.314 626.021 415.906 625.866 421.498 625.451L421.576 625.684Z" fill="#FFDE17"/>
  <path d="M359.52 493.262C353.071 492.119 346.732 490.43 340.569 488.214C334.413 486.053 328.44 483.404 322.706 480.292C319.832 478.661 317.036 477.03 314.318 475.166C312.92 474.234 311.677 473.224 310.357 472.292C309.036 471.36 307.716 470.273 306.473 469.186C301.479 464.982 297.019 460.183 293.192 454.895H293.27C295.522 457.303 297.619 459.788 300.027 461.963C300.571 462.584 301.192 463.128 301.736 463.671L303.522 465.302L307.25 468.409C308.57 469.419 309.891 470.273 311.133 471.283C312.376 472.292 313.774 473.147 315.172 474.001C317.813 475.787 320.609 477.418 323.405 478.972C326.201 480.525 329.152 482.001 332.026 483.321C334.899 484.641 338.006 485.884 340.958 487.127C343.909 488.369 347.016 489.457 350.122 490.389C353.229 491.321 356.336 492.33 359.52 493.185V493.262Z" fill="#FFDE17"/>
  <path d="M281.853 521.3L286.668 525.106L289.076 526.892L291.561 528.678L294.047 530.387C294.844 531.001 295.674 531.571 296.532 532.096L299.095 533.727L301.658 535.28C308.588 539.373 315.834 542.905 323.327 545.843C330.78 548.776 338.472 551.063 346.317 552.677L352.297 553.765L353.773 553.998L355.326 554.153L358.277 554.464C362.316 555.085 366.355 555.085 370.393 555.396V555.551C362.283 555.746 354.172 555.2 346.161 553.92C338.153 552.459 330.3 550.248 322.706 547.318C315.145 544.347 307.889 540.654 301.037 536.29C294.175 531.946 287.727 526.981 281.775 521.455L281.853 521.3Z" fill="#FFDE17"/>
  <path d="M456.992 349.889C456.992 354.215 458.711 358.363 461.769 361.422C464.828 364.481 468.977 366.199 473.302 366.199C476.26 366.213 479.163 365.406 481.69 363.869C474.28 357.305 466.058 351.72 457.225 347.249C457.067 348.12 456.989 349.004 456.992 349.889V349.889Z" fill="url(#paint11_linear_123_746)"/>
  <path d="M322.939 296.921L315.871 298.474C313.521 299.071 311.134 299.512 308.726 299.794L301.581 300.649L299.717 300.882H297.93L294.358 301.115C284.658 301.595 274.934 301.179 265.31 299.872C255.688 298.608 246.2 296.477 236.962 293.503C227.797 290.474 218.788 286.669 210.633 281.465C219.651 284.59 228.828 287.235 238.127 289.387C247.369 291.484 256.689 293.27 266.009 294.513C275.329 295.756 284.805 296.61 294.28 296.843L297.853 296.998H308.571C310.978 297.076 313.308 296.921 315.716 296.843L322.939 296.921Z" fill="#AB516D"/>
  <path d="M125.199 390.198C125.199 390.198 116.5 497.301 186.167 581.57C250.553 659.47 399.363 641.451 399.363 641.451C399.363 641.451 159.528 655.509 125.199 390.198Z" fill="url(#paint12_linear_123_746)"/>
  <defs>
    <linearGradient id="paint0_linear_123_746" x1="176.017" y1="248.34" x2="175.698" y2="249.249" gradientUnits="userSpaceOnUse">
      <stop offset="0.09" stop-color="#802340"/>
      <stop offset="1" stop-color="#431121"/>
    </linearGradient>
    <linearGradient id="paint1_linear_123_746" x1="384.171" y1="-2.51631" x2="162.883" y2="624.069" gradientUnits="userSpaceOnUse">
      <stop offset="0.09" stop-color="#802340"/>
      <stop offset="1" stop-color="#431121"/>
    </linearGradient>
    <linearGradient id="paint2_linear_123_746" x1="452.93" y1="269.737" x2="229.451" y2="552.033" gradientUnits="userSpaceOnUse">
      <stop offset="0.09" stop-color="#802340"/>
      <stop offset="1" stop-color="#431121"/>
    </linearGradient>
    <linearGradient id="paint3_linear_123_746" x1="210.656" y1="319.133" x2="319.522" y2="319.133" gradientUnits="userSpaceOnUse">
      <stop stop-color="#27000E" stop-opacity="0.25"/>
      <stop offset="1" stop-color="#440F19"/>
    </linearGradient>
    <linearGradient id="paint4_linear_123_746" x1="593.67" y1="475.756" x2="108.368" y2="467.135" gradientUnits="userSpaceOnUse">
      <stop stop-color="#440F18" stop-opacity="0.75"/>
      <stop offset="0.41" stop-color="#440F18" stop-opacity="0.51"/>
      <stop offset="1" stop-color="#440F18" stop-opacity="0.05"/>
    </linearGradient>
    <linearGradient id="paint5_linear_123_746" x1="215.906" y1="242.103" x2="438.616" y2="242.103" gradientUnits="userSpaceOnUse">
      <stop stop-color="#440F18" stop-opacity="0.05"/>
      <stop offset="0.59" stop-color="#440F18" stop-opacity="0.51"/>
      <stop offset="1" stop-color="#440F18" stop-opacity="0.75"/>
    </linearGradient>
    <linearGradient id="paint6_linear_123_746" x1="595.611" y1="471.686" x2="275.181" y2="471.686" gradientUnits="userSpaceOnUse">
      <stop stop-color="#440F19"/>
      <stop offset="1" stop-color="#27000E" stop-opacity="0.25"/>
    </linearGradient>
    <linearGradient id="paint7_linear_123_746" x1="277.286" y1="571.76" x2="421.537" y2="571.76" gradientUnits="userSpaceOnUse">
      <stop stop-color="#EBD119"/>
      <stop offset="1" stop-color="#EB6A00"/>
    </linearGradient>
    <linearGradient id="paint8_linear_123_746" x1="277.286" y1="503.693" x2="370.409" y2="503.693" gradientUnits="userSpaceOnUse">
      <stop stop-color="#EBD119"/>
      <stop offset="1" stop-color="#EB6A00"/>
    </linearGradient>
    <linearGradient id="paint9_linear_123_746" x1="291.173" y1="434.872" x2="370.409" y2="434.872" gradientUnits="userSpaceOnUse">
      <stop stop-color="#EBD119"/>
      <stop offset="1" stop-color="#EB6A00"/>
    </linearGradient>
    <linearGradient id="paint10_linear_123_746" x1="422.881" y1="349.687" x2="207.355" y2="172.607" gradientUnits="userSpaceOnUse">
      <stop stop-color="#440F19"/>
      <stop offset="1" stop-color="#27000E" stop-opacity="0.25"/>
    </linearGradient>
    <linearGradient id="paint11_linear_123_746" x1="482.568" y1="323.677" x2="462.763" y2="371.83" gradientUnits="userSpaceOnUse">
      <stop stop-color="#EBD119"/>
      <stop offset="1" stop-color="#EB6A00"/>
    </linearGradient>
    <linearGradient id="paint12_linear_123_746" x1="124.857" y1="516.741" x2="399.371" y2="516.741" gradientUnits="userSpaceOnUse">
      <stop stop-color="#EBD119"/>
      <stop offset="1" stop-color="#EB6A00"/>
    </linearGradient>
  </defs>
</svg>
